<?xml version="1.0" encoding="UTF-8"?>
<!--Generator: Apple Native CoreSVG 232.5-->
<!DOCTYPE svg
PUBLIC "-//W3C//DTD SVG 1.1//EN"
       "http://www.w3.org/Graphics/SVG/1.1/DTD/svg11.dtd">
<svg version="1.1" xmlns="http://www.w3.org/2000/svg" xmlns:xlink="http://www.w3.org/1999/xlink" width="3300" height="2200">
 <!--glyph: "", point size: 100.0, font version: "19.0d8e1", template writer version: "128"-->
 <style>.monochrome-0 {-sfsymbols-variable-threshold:0.0;-sfsymbols-motion-group:3}
.monochrome-1 {opacity:0.0;-sfsymbols-clear-behind:true;-sfsymbols-variable-threshold:0.15;-sfsymbols-motion-group:2}
.monochrome-2 {-sfsymbols-variable-threshold:0.3;-sfsymbols-motion-group:2}
.monochrome-3 {opacity:0.0;-sfsymbols-clear-behind:true;-sfsymbols-variable-threshold:0.44;-sfsymbols-motion-group:2}
.monochrome-4 {-sfsymbols-variable-threshold:0.58;-sfsymbols-motion-group:1}
.monochrome-5 {-sfsymbols-variable-threshold:0.72;-sfsymbols-motion-group:0}
.monochrome-6 {opacity:0.0;-sfsymbols-clear-behind:true;-sfsymbols-variable-threshold:0.87;-sfsymbols-motion-group:0}

.multicolor-0:tintColor {-sfsymbols-variable-threshold:0.0;-sfsymbols-motion-group:3}
.multicolor-1:tintColor {-sfsymbols-variable-threshold:0.15;-sfsymbols-motion-group:2}
.multicolor-2:tintColor {-sfsymbols-variable-threshold:0.3;-sfsymbols-motion-group:2}
.multicolor-3:tintColor {-sfsymbols-variable-threshold:0.44;-sfsymbols-motion-group:2}
.multicolor-4:tintColor {-sfsymbols-variable-threshold:0.58;-sfsymbols-motion-group:1}
.multicolor-5:tintColor {-sfsymbols-variable-threshold:0.72;-sfsymbols-motion-group:0}
.multicolor-6:tintColor {-sfsymbols-variable-threshold:0.87;-sfsymbols-motion-group:0}

.hierarchical-0:primary {-sfsymbols-variable-threshold:0.0;-sfsymbols-motion-group:3}
.hierarchical-1:primary {-sfsymbols-variable-threshold:0.15;-sfsymbols-motion-group:2}
.hierarchical-2:primary {-sfsymbols-variable-threshold:0.3;-sfsymbols-motion-group:2}
.hierarchical-3:primary {-sfsymbols-variable-threshold:0.44;-sfsymbols-motion-group:2}
.hierarchical-4:primary {-sfsymbols-variable-threshold:0.58;-sfsymbols-motion-group:1}
.hierarchical-5:primary {-sfsymbols-variable-threshold:0.72;-sfsymbols-motion-group:0}
.hierarchical-6:primary {-sfsymbols-variable-threshold:0.87;-sfsymbols-motion-group:0}

.SFSymbolsPreviewWireframe {fill:none;opacity:1.0;stroke:black;stroke-width:0.5}
</style>
 <g id="Notes">
  <rect height="2200" id="artboard" style="fill:white;opacity:1" width="3300" x="0" y="0"/>
  <line style="fill:none;stroke:black;opacity:1;stroke-width:0.5;" x1="263" x2="3036" y1="292" y2="292"/>
  <text style="stroke:none;fill:black;font-family:sans-serif;font-size:13;font-weight:bold;" transform="matrix(1 0 0 1 263 322)">Weight/Scale Variations</text>
  <text style="stroke:none;fill:black;font-family:sans-serif;font-size:13;text-anchor:middle;" transform="matrix(1 0 0 1 559.711 322)">Ultralight</text>
  <text style="stroke:none;fill:black;font-family:sans-serif;font-size:13;text-anchor:middle;" transform="matrix(1 0 0 1 856.422 322)">Thin</text>
  <text style="stroke:none;fill:black;font-family:sans-serif;font-size:13;text-anchor:middle;" transform="matrix(1 0 0 1 1153.13 322)">Light</text>
  <text style="stroke:none;fill:black;font-family:sans-serif;font-size:13;text-anchor:middle;" transform="matrix(1 0 0 1 1449.84 322)">Regular</text>
  <text style="stroke:none;fill:black;font-family:sans-serif;font-size:13;text-anchor:middle;" transform="matrix(1 0 0 1 1746.56 322)">Medium</text>
  <text style="stroke:none;fill:black;font-family:sans-serif;font-size:13;text-anchor:middle;" transform="matrix(1 0 0 1 2043.27 322)">Semibold</text>
  <text style="stroke:none;fill:black;font-family:sans-serif;font-size:13;text-anchor:middle;" transform="matrix(1 0 0 1 2339.98 322)">Bold</text>
  <text style="stroke:none;fill:black;font-family:sans-serif;font-size:13;text-anchor:middle;" transform="matrix(1 0 0 1 2636.69 322)">Heavy</text>
  <text style="stroke:none;fill:black;font-family:sans-serif;font-size:13;text-anchor:middle;" transform="matrix(1 0 0 1 2933.4 322)">Black</text>
  <line style="fill:none;stroke:black;opacity:1;stroke-width:0.5;" x1="263" x2="3036" y1="1903" y2="1903"/>
  <g transform="matrix(0.2 0 0 0.2 263 1933)">
   <path d="m46.2402 4.15039c21.5332 0 39.4531-17.8711 39.4531-39.4043s-17.9688-39.4043-39.502-39.4043c-21.4844 0-39.3555 17.8711-39.3555 39.4043s17.9199 39.4043 39.4043 39.4043Zm0-7.42188c-17.7246 0-31.8848-14.209-31.8848-31.9824s14.1113-31.9824 31.8359-31.9824c17.7734 0 32.0312 14.209 32.0312 31.9824s-14.209 31.9824-31.9824 31.9824Zm-17.9688-31.9824c0 2.14844 1.51367 3.61328 3.75977 3.61328h10.498v10.5957c0 2.19727 1.46484 3.71094 3.61328 3.71094 2.24609 0 3.71094-1.51367 3.71094-3.71094v-10.5957h10.5957c2.19727 0 3.71094-1.46484 3.71094-3.61328 0-2.19727-1.51367-3.71094-3.71094-3.71094h-10.5957v-10.5469c0-2.24609-1.46484-3.75977-3.71094-3.75977-2.14844 0-3.61328 1.51367-3.61328 3.75977v10.5469h-10.498c-2.24609 0-3.75977 1.51367-3.75977 3.71094Z"/>
  </g>
  <g transform="matrix(0.2 0 0 0.2 281.506 1933)">
   <path d="m58.5449 14.5508c27.2461 0 49.8047-22.6074 49.8047-49.8047 0-27.2461-22.6074-49.8047-49.8535-49.8047-27.1973 0-49.7559 22.5586-49.7559 49.8047 0 27.1973 22.6074 49.8047 49.8047 49.8047Zm0-8.30078c-23.0469 0-41.4551-18.457-41.4551-41.5039s18.3594-41.5039 41.4062-41.5039 41.5527 18.457 41.5527 41.5039-18.457 41.5039-41.5039 41.5039Zm-22.6562-41.5039c0 2.39258 1.66016 4.00391 4.15039 4.00391h14.3555v14.4043c0 2.44141 1.66016 4.15039 4.05273 4.15039 2.44141 0 4.15039-1.66016 4.15039-4.15039v-14.4043h14.4043c2.44141 0 4.15039-1.61133 4.15039-4.00391 0-2.44141-1.70898-4.15039-4.15039-4.15039h-14.4043v-14.3555c0-2.49023-1.70898-4.19922-4.15039-4.19922-2.39258 0-4.05273 1.70898-4.05273 4.19922v14.3555h-14.3555c-2.49023 0-4.15039 1.70898-4.15039 4.15039Z"/>
  </g>
  <g transform="matrix(0.2 0 0 0.2 304.924 1933)">
   <path d="m74.8535 28.3203c34.8145 0 63.623-28.8086 63.623-63.5742 0-34.8145-28.8574-63.623-63.6719-63.623-34.7656 0-63.5254 28.8086-63.5254 63.623 0 34.7656 28.8086 63.5742 63.5742 63.5742Zm0-9.08203c-30.1758 0-54.4434-24.3164-54.4434-54.4922 0-30.2246 24.2188-54.4922 54.3945-54.4922 30.2246 0 54.541 24.2676 54.541 54.4922 0 30.1758-24.2676 54.4922-54.4922 54.4922Zm-28.8574-54.4922c0 2.58789 1.85547 4.39453 4.58984 4.39453h19.7266v19.7754c0 2.68555 1.85547 4.58984 4.44336 4.58984 2.68555 0 4.54102-1.85547 4.54102-4.58984v-19.7754h19.7754c2.68555 0 4.58984-1.80664 4.58984-4.39453 0-2.73438-1.85547-4.58984-4.58984-4.58984h-19.7754v-19.7266c0-2.73438-1.85547-4.63867-4.54102-4.63867-2.58789 0-4.44336 1.9043-4.44336 4.63867v19.7266h-19.7266c-2.73438 0-4.58984 1.85547-4.58984 4.58984Z"/>
  </g>
  <text style="stroke:none;fill:black;font-family:sans-serif;font-size:13;font-weight:bold;" transform="matrix(1 0 0 1 263 1953)">Design Variations</text>
  <text style="stroke:none;fill:black;font-family:sans-serif;font-size:13;" transform="matrix(1 0 0 1 263 1971)">Symbols are supported in up to nine weights and three scales.</text>
  <text style="stroke:none;fill:black;font-family:sans-serif;font-size:13;" transform="matrix(1 0 0 1 263 1989)">For optimal layout with text and other symbols, vertically align</text>
  <text style="stroke:none;fill:black;font-family:sans-serif;font-size:13;" transform="matrix(1 0 0 1 263 2007)">symbols with the adjacent text.</text>
  <line style="fill:none;stroke:#00AEEF;stroke-width:0.5;opacity:1.0;" x1="776" x2="776" y1="1919" y2="1933"/>
  <g transform="matrix(0.2 0 0 0.2 776 1933)">
   <path d="m16.5527 0.78125c2.58789 0 3.85742-0.976562 4.78516-3.71094l6.29883-17.2363h28.8086l6.29883 17.2363c0.927734 2.73438 2.19727 3.71094 4.73633 3.71094 2.58789 0 4.24805-1.5625 4.24805-4.00391 0-0.830078-0.146484-1.61133-0.537109-2.63672l-22.9004-60.9863c-1.12305-2.97852-3.125-4.49219-6.25-4.49219-3.02734 0-5.07812 1.46484-6.15234 4.44336l-22.9004 61.084c-0.390625 1.02539-0.537109 1.80664-0.537109 2.63672 0 2.44141 1.5625 3.95508 4.10156 3.95508Zm13.4766-28.3691 11.8652-32.8613h0.244141l11.8652 32.8613Z"/>
  </g>
  <line style="fill:none;stroke:#00AEEF;stroke-width:0.5;opacity:1.0;" x1="792.836" x2="792.836" y1="1919" y2="1933"/>
  <text style="stroke:none;fill:black;font-family:sans-serif;font-size:13;font-weight:bold;" transform="matrix(1 0 0 1 776 1953)">Margins</text>
  <text style="stroke:none;fill:black;font-family:sans-serif;font-size:13;" transform="matrix(1 0 0 1 776 1971)">Leading and trailing margins on the left and right side of each symbol</text>
  <text style="stroke:none;fill:black;font-family:sans-serif;font-size:13;" transform="matrix(1 0 0 1 776 1989)">can be adjusted by modifying the x-location of the margin guidelines.</text>
  <text style="stroke:none;fill:black;font-family:sans-serif;font-size:13;" transform="matrix(1 0 0 1 776 2007)">Modifications are automatically applied proportionally to all</text>
  <text style="stroke:none;fill:black;font-family:sans-serif;font-size:13;" transform="matrix(1 0 0 1 776 2025)">scales and weights.</text>
  <g transform="matrix(0.2 0 0 0.2 1289 1933)">
   <path d="m14.209 9.32617 8.49609 8.54492c4.29688 4.3457 9.22852 4.05273 13.8672-1.07422l53.4668-58.9355-4.83398-4.88281-53.0762 58.3984c-1.75781 2.00195-3.41797 2.49023-5.76172 0.146484l-5.85938-5.81055c-2.34375-2.29492-1.80664-4.00391 0.195312-5.81055l57.373-54.0039-4.88281-4.83398-57.959 54.4434c-4.93164 4.58984-5.32227 9.47266-1.02539 13.8184Zm32.0801-90.9668c-2.09961 2.05078-2.24609 4.93164-1.07422 6.88477 1.17188 1.80664 3.4668 2.97852 6.68945 2.14844 7.32422-1.70898 14.9414-2.00195 22.0703 2.68555l-2.92969 7.27539c-1.70898 4.15039-0.830078 7.08008 1.85547 9.81445l11.4746 11.5723c2.44141 2.44141 4.49219 2.53906 7.32422 2.05078l5.32227-0.976562 3.32031 3.36914-0.195312 2.7832c-0.195312 2.49023 0.439453 4.39453 2.88086 6.78711l3.80859 3.71094c2.39258 2.39258 5.46875 2.53906 7.8125 0.195312l14.5508-14.5996c2.34375-2.34375 2.24609-5.32227-0.146484-7.71484l-3.85742-3.80859c-2.39258-2.39258-4.24805-3.17383-6.64062-2.97852l-2.88086 0.244141-3.22266-3.17383 1.2207-5.61523c0.634766-2.83203-0.146484-5.0293-3.07617-7.95898l-10.9863-10.9375c-16.6992-16.6016-38.8672-16.2109-53.3203-1.75781Zm7.4707 1.85547c12.1582-8.88672 28.6133-7.37305 39.7461 3.75977l12.1582 12.0605c1.17188 1.17188 1.36719 2.09961 1.02539 3.80859l-1.61133 7.42188 7.51953 7.42188 4.93164-0.292969c1.26953-0.0488281 1.66016 0.0488281 2.63672 1.02539l2.88086 2.88086-12.207 12.207-2.88086-2.88086c-0.976562-0.976562-1.12305-1.36719-1.07422-2.68555l0.341797-4.88281-7.4707-7.42188-7.61719 1.26953c-1.61133 0.341797-2.34375 0.195312-3.56445-0.976562l-10.0098-10.0098c-1.26953-1.17188-1.41602-2.00195-0.634766-3.85742l4.39453-10.4492c-7.8125-7.27539-17.9688-10.4004-28.125-7.42188-0.78125 0.195312-1.07422-0.439453-0.439453-0.976562Z"/>
  </g>
  <text style="stroke:none;fill:black;font-family:sans-serif;font-size:13;font-weight:bold;" transform="matrix(1 0 0 1 1289 1953)">Exporting</text>
  <text style="stroke:none;fill:black;font-family:sans-serif;font-size:13;" transform="matrix(1 0 0 1 1289 1971)">Symbols should be outlined when exporting to ensure the</text>
  <text style="stroke:none;fill:black;font-family:sans-serif;font-size:13;" transform="matrix(1 0 0 1 1289 1989)">design is preserved when submitting to Xcode.</text>
  <text id="template-version" style="stroke:none;fill:black;font-family:sans-serif;font-size:13;text-anchor:end;" transform="matrix(1 0 0 1 3036 1933)">Template v.5.0</text>
  <text style="stroke:none;fill:black;font-family:sans-serif;font-size:13;text-anchor:end;" transform="matrix(1 0 0 1 3036 1951)">Requires Xcode 15 or greater</text>
  <text id="descriptive-name" style="stroke:none;fill:black;font-family:sans-serif;font-size:13;text-anchor:end;" transform="matrix(1 0 0 1 3036 1969)">Generated from LabelingIcon</text>
  <text style="stroke:none;fill:black;font-family:sans-serif;font-size:13;text-anchor:end;" transform="matrix(1 0 0 1 3036 1987)">Typeset at 100.0 points</text>
  <text style="stroke:none;fill:black;font-family:sans-serif;font-size:13;" transform="matrix(1 0 0 1 263 726)">Small</text>
  <text style="stroke:none;fill:black;font-family:sans-serif;font-size:13;" transform="matrix(1 0 0 1 263 1156)">Medium</text>
  <text style="stroke:none;fill:black;font-family:sans-serif;font-size:13;" transform="matrix(1 0 0 1 263 1586)">Large</text>
 </g>
 <g id="Guides">
  <g id="H-reference" style="fill:#27AAE1;stroke:none;" transform="matrix(1 0 0 1 339 696)">
   <path d="M0.993654 0L3.63775 0L29.3281-67.1323L30.0303-67.1323L30.0303-70.459L28.1226-70.459ZM11.6885-24.4799L46.9815-24.4799L46.2315-26.7285L12.4385-26.7285ZM55.1196 0L57.7637 0L30.6382-70.459L29.4326-70.459L29.4326-67.1323Z"/>
  </g>
  <line id="Baseline-S" style="fill:none;stroke:#27AAE1;opacity:1;stroke-width:0.5;" x1="263" x2="3036" y1="696" y2="696"/>
  <line id="Capline-S" style="fill:none;stroke:#27AAE1;opacity:1;stroke-width:0.5;" x1="263" x2="3036" y1="625.541" y2="625.541"/>
  <g id="H-reference" style="fill:#27AAE1;stroke:none;" transform="matrix(1 0 0 1 339 1126)">
   <path d="M0.993654 0L3.63775 0L29.3281-67.1323L30.0303-67.1323L30.0303-70.459L28.1226-70.459ZM11.6885-24.4799L46.9815-24.4799L46.2315-26.7285L12.4385-26.7285ZM55.1196 0L57.7637 0L30.6382-70.459L29.4326-70.459L29.4326-67.1323Z"/>
  </g>
  <line id="Baseline-M" style="fill:none;stroke:#27AAE1;opacity:1;stroke-width:0.5;" x1="263" x2="3036" y1="1126" y2="1126"/>
  <line id="Capline-M" style="fill:none;stroke:#27AAE1;opacity:1;stroke-width:0.5;" x1="263" x2="3036" y1="1055.54" y2="1055.54"/>
  <g id="H-reference" style="fill:#27AAE1;stroke:none;" transform="matrix(1 0 0 1 339 1556)">
   <path d="M0.993654 0L3.63775 0L29.3281-67.1323L30.0303-67.1323L30.0303-70.459L28.1226-70.459ZM11.6885-24.4799L46.9815-24.4799L46.2315-26.7285L12.4385-26.7285ZM55.1196 0L57.7637 0L30.6382-70.459L29.4326-70.459L29.4326-67.1323Z"/>
  </g>
  <line id="Baseline-L" style="fill:none;stroke:#27AAE1;opacity:1;stroke-width:0.5;" x1="263" x2="3036" y1="1556" y2="1556"/>
  <line id="Capline-L" style="fill:none;stroke:#27AAE1;opacity:1;stroke-width:0.5;" x1="263" x2="3036" y1="1485.54" y2="1485.54"/>
  <line id="left-margin-Ultralight-S" style="fill:none;stroke:#FF3B30;stroke-width:0.5;opacity:1.0;" x1="519.365" x2="519.365" y1="600.785" y2="720.121"/>
  <line id="right-margin-Ultralight-S" style="fill:none;stroke:#FF3B30;stroke-width:0.5;opacity:1.0;" x1="600.057" x2="600.057" y1="600.785" y2="720.121"/>
  <line id="left-margin-Regular-S" style="fill:none;stroke:#FF3B30;stroke-width:0.5;opacity:1.0;" x1="1403.8" x2="1403.8" y1="600.785" y2="720.121"/>
  <line id="right-margin-Regular-S" style="fill:none;stroke:#FF3B30;stroke-width:0.5;opacity:1.0;" x1="1495.89" x2="1495.89" y1="600.785" y2="720.121"/>
  <line id="left-margin-Black-S" style="fill:none;stroke:#FF3B30;stroke-width:0.5;opacity:1.0;" x1="2882.13" x2="2882.13" y1="600.785" y2="720.121"/>
  <line id="right-margin-Black-S" style="fill:none;stroke:#FF3B30;stroke-width:0.5;opacity:1.0;" x1="2984.67" x2="2984.67" y1="600.785" y2="720.121"/>
 </g>
 <g id="Symbols">
  <g id="Black-S" transform="matrix(1 0 0 1 2882.13 696)">
   <path class="monochrome-0 multicolor-0:tintColor hierarchical-0:primary SFSymbolsPreviewWireframe" d="M4.64-25.293L16.35-25.293C18.99-25.293 20.99-26.074 22.16-27.734L25.88-33.008L19.28-33.008L24.31-7.178C25.39-1.709 33.15-1.709 33.93-7.178L35.79-20.117L39.06 10.791C39.69 16.65 48.29 16.65 48.78 10.791L51.27-19.482L53.76 10.791C54.25 16.65 62.84 16.65 63.47 10.791L66.75-20.117L68.6-7.178C69.38-1.709 77.15-1.709 78.22-7.178L83.3-33.008L78.02-33.008L80.12-29.59C81.78-26.855 84.32-25.293 87.45-25.293L97.9-25.293C100.53-25.293 102.78-27.539 102.78-30.176C102.78-32.812 100.53-35.059 97.9-35.059L88.33-35.059L85.59-46.289C84.37-51.318 77.05-51.318 76.07-46.289L74.22-36.914L70.9-60.059C70.07-65.771 61.81-65.771 61.23-60.059L59.27-41.602L56.15-79.394C55.66-85.352 46.87-85.352 46.38-79.394L43.26-41.602L41.31-60.059C40.72-65.771 32.47-65.771 31.64-60.059L28.32-36.914L26.46-46.289C25.49-51.269 18.16-51.269 16.94-46.289L14.21-35.059L4.64-35.059C2-35.059-0.25-32.812-0.25-30.176C-0.25-27.539 2-25.293 4.64-25.293Z"/>
   <path class="monochrome-1 multicolor-1:tintColor hierarchical-1:primary SFSymbolsPreviewWireframe" d="M89.82 8.182C104.76 8.182 117.12-4.221 117.12-19.162C117.12-34.104 104.76-46.408 89.82-46.408C74.88-46.408 62.53-34.104 62.53-19.162C62.53-4.221 74.88 8.182 89.82 8.182Z"/>
   <path class="monochrome-2 multicolor-2:tintColor hierarchical-2:primary SFSymbolsPreviewWireframe" d="M89.82 1.834C101.3 1.834 110.77-7.736 110.77-19.162C110.77-30.588 101.3-40.061 89.82-40.061C78.35-40.061 68.87-30.588 68.87-19.162C68.87-7.736 78.35 1.834 89.82 1.834Z"/>
   <path class="monochrome-3 multicolor-3:tintColor hierarchical-3:primary SFSymbolsPreviewWireframe" d="M89.82-5.1C87.48-5.1 85.92-6.662 85.92-8.957L85.92-15.207L79.76-15.207C77.47-15.207 75.86-16.77 75.86-19.113C75.86-21.457 77.37-23.02 79.76-23.02L85.92-23.02L85.92-29.123C85.92-31.418 87.48-33.029 89.82-33.029C92.17-33.029 93.73-31.516 93.73-29.123L93.73-23.02L99.93-23.02C102.22-23.02 103.79-21.457 103.79-19.113C103.79-16.77 102.22-15.207 99.93-15.207L93.73-15.207L93.73-8.957C93.73-6.662 92.17-5.1 89.82-5.1Z"/>
   <path class="monochrome-4 multicolor-4:tintColor hierarchical-4:primary SFSymbolsPreviewWireframe" d="M167.01-30.371C167.01-31.66 166.45-33.067 165.63-33.887L151.01-48.506C150.04-49.473 148.84-50 147.73-50C144.83-50 142.98-48.037 142.98-45.488C142.98-43.965 143.69-42.91 144.59-42.031L149.87-36.817L155.58-31.485L158.1-34.678L147.41-35.176L124.97-35.176C121.89-35.176 119.87-33.272 119.87-30.371C119.87-27.471 121.89-25.567 124.97-25.567L147.41-25.567L158.1-26.065L155.58-29.258L149.87-23.926L144.59-18.741C143.69-17.862 142.98-16.807 142.98-15.284C142.98-12.735 144.83-10.772 147.73-10.772C148.84-10.772 150.04-11.299 151.01-12.266L165.63-26.856C166.45-27.676 167.01-29.082 167.01-30.371Z"/>
   <path class="monochrome-5 multicolor-5:tintColor hierarchical-5:primary SFSymbolsPreviewWireframe" d="M171.87-13.303C171.87 0.076 186.18 9.012 208.3 9.012C230.41 9.012 244.72 0.076 244.72-13.303L244.72-57.932C244.72-70.09 230.22-78 208.3-78C186.37-78 171.87-70.09 171.87-57.932L171.87-13.303Z"/>
   <path class="monochrome-6 multicolor-6:tintColor hierarchical-6:primary SFSymbolsPreviewWireframe" d="M171.87-25.607L171.87-37.668C180.9-30.441 194.43-26.193 208.3-26.193C222.16-26.193 235.69-30.441 244.72-37.668L244.72-25.607C236.42-18.869 222.9-14.865 208.3-14.865C193.7-14.865 180.17-18.869 171.87-25.607ZM184.66-57.932C184.66-62.57 194.62-66.184 208.3-66.184C221.97-66.184 231.93-62.57 231.93-57.932C231.93-53.635 221.82-50.168 208.3-50.168C194.77-50.168 184.66-53.635 184.66-57.932Z"/>
  </g>
  <g id="Regular-S" transform="matrix(1 0 0 1 1403.8 696)">
   <path class="monochrome-0 multicolor-0:tintColor hierarchical-0:primary SFSymbolsPreviewWireframe" d="M2.39-27.441L13.18-27.441C14.3-27.441 15.38-28.125 15.67-29.394L17.23-36.621L15.72-36.621L21.58-9.57C22.16-6.982 26.36-6.982 26.75-9.57L31.1-38.037L36.32 7.08C36.71 10.303 41.25 10.254 41.55 7.08L46.28-46.045L51.02 7.08C51.26 10.303 55.81 10.303 56.2 7.08L61.42-38.037L65.82-9.57C66.16-6.982 70.36-6.982 70.94-9.57L76.75-36.377L75.09-36.328L76.9-29.394C77.24-27.93 78.27-27.441 79.39-27.441L89.69-27.441C91.45-27.441 92.82-28.76 92.82-30.469C92.82-32.227 91.45-33.594 89.69-33.594L81.29-33.594L78.27-45.019C77.53-47.9 73.77-47.9 73.19-45.019L68.74-24.365L63.62-57.861C63.13-60.986 58.78-60.937 58.44-57.861L53.9-18.945L48.92-75.732C48.63-78.955 43.89-78.955 43.65-75.732L38.62-18.945L34.13-57.861C33.74-60.986 29.39-60.986 28.9-57.861L23.77-24.365L19.38-45.019C18.79-47.705 14.99-47.705 14.25-45.019L11.27-33.594L2.39-33.594C0.63-33.594-0.74-32.227-0.74-30.469C-0.74-28.76 0.63-27.441 2.39-27.441Z"/>
   <path class="monochrome-1 multicolor-1:tintColor hierarchical-1:primary SFSymbolsPreviewWireframe" d="M79.32 11.133C93.19 11.133 104.72-0.439 104.72-14.258C104.72-28.223 93.29-39.697 79.32-39.697C65.41-39.697 53.93-28.223 53.93-14.258C53.93-0.293 65.36 11.133 79.32 11.133Z"/>
   <path class="monochrome-2 multicolor-2:tintColor hierarchical-2:primary SFSymbolsPreviewWireframe" d="M79.32 5.42C90.02 5.42 99.05-3.516 99.05-14.258C99.05-25.049 90.12-33.984 79.32-33.984C68.53-33.984 59.65-25.049 59.65-14.258C59.65-3.418 68.53 5.42 79.32 5.42Z"/>
   <path class="monochrome-3 multicolor-3:tintColor hierarchical-3:primary SFSymbolsPreviewWireframe" d="M79.32-2.051C77.81-2.051 76.83-3.027 76.83-4.59L76.83-11.768L69.66-11.768C68.09-11.768 67.12-12.744 67.12-14.258C67.12-15.82 68.09-16.797 69.66-16.797L76.83-16.797L76.83-23.975C76.83-25.488 77.81-26.514 79.32-26.514C80.89-26.514 81.86-25.488 81.86-23.975L81.86-16.797L89.04-16.797C90.55-16.797 91.58-15.82 91.58-14.258C91.58-12.744 90.55-11.768 89.04-11.768L81.86-11.768L81.86-4.59C81.86-3.027 80.89-2.051 79.32-2.051Z"/>
   <path class="monochrome-4 multicolor-4:tintColor hierarchical-4:primary SFSymbolsPreviewWireframe" d="M137.72-30.352C137.72-30.889 137.48-31.402 137.04-31.817L124.44-44.39C124-44.805 123.51-45 123-45C121.92-45 121.09-44.194 121.09-43.096C121.09-42.583 121.27-42.07 121.63-41.729L125-38.238L133.25-30.792L133.69-31.866L127.2-32.33L104.15-32.33C103.01-32.33 102.2-31.5 102.2-30.352C102.2-29.205 103.01-28.375 104.15-28.375L127.2-28.375L133.69-28.839L133.25-29.889L125-22.467L121.63-18.976C121.27-18.634 121.09-18.122 121.09-17.609C121.09-16.511 121.92-15.705 123-15.705C123.51-15.705 124-15.9 124.44-16.315L137.04-28.888C137.48-29.303 137.72-29.815 137.72-30.352Z"/>
   <path class="monochrome-5 multicolor-5:tintColor hierarchical-5:primary SFSymbolsPreviewWireframe" d="M144.2-13.963C144.2-2.635 157.63 5.031 177.7 5.031C197.76 5.031 211.19-2.635 211.19-13.963L211.19-59.959C211.19-70.164 197.81-77 177.7-77C157.58-77 144.2-70.164 144.2-59.959L144.2-13.963Z"/>
   <path class="monochrome-6 multicolor-6:tintColor hierarchical-6:primary SFSymbolsPreviewWireframe" d="M144.2-28.66L144.2-36.277C152.5-29.149 163.15-25.926 177.7-25.926C192.25-25.926 202.89-29.149 211.19-36.277L211.19-28.66C202.21-22.264 191.66-19.334 177.7-19.334C163.73-19.334 153.18-22.264 144.2-28.66ZM151.23-59.959C151.23-66.502 161.83-70.896 177.7-70.896C193.57-70.896 204.16-66.502 204.16-59.959C204.16-53.66 193.57-49.461 177.7-49.461C161.83-49.461 151.23-53.66 151.23-59.959Z"/>
  </g>
  <g id="Ultralight-S" transform="matrix(1 0 0 1 519.365 696)">
   <path class="monochrome-0 multicolor-0:tintColor hierarchical-0:primary SFSymbolsPreviewWireframe" d="M-6.144-29.485L7.099-29.485C7.587-29.485 8.07-29.805 8.182-30.257L10.97-41.48L10.41-41.48L17.132-9.343C17.401-8.163 19.102-8.118 19.311-9.389L25.382-50.207L31.924 7.08C32.088 8.35 33.949 8.347 34.061 7.08L40.341-63.982L46.667 6.944C46.775 8.259 48.636 8.305 48.8 6.944L55.296-50.207L61.462-9.252C61.622-8.072 63.323-8.072 63.591-9.252L70.31-41.463L69.74-41.459L72.546-30.257C72.66-29.792 73.141-29.485 73.583-29.485L86.837-29.485C87.414-29.485 87.919-30.031 87.919-30.56C87.919-31.091 87.414-31.641 86.837-31.641L74.443-31.641L71.006-45.337C70.728-46.447 69.103-46.402 68.88-45.292L62.666-15.465L56.222-58.452C56.051-59.669 54.249-59.666 54.088-58.406L47.822-3.597L41.434-76.05C41.322-77.366 39.401-77.366 39.294-76.05L32.857-3.597L26.639-58.406C26.475-59.715 24.718-59.715 24.502-58.452L18.013-15.465L11.802-45.201C11.579-46.434 9.996-46.434 9.672-45.201L6.285-31.641L-6.144-31.641C-6.721-31.641-7.225-31.091-7.225-30.56C-7.225-30.031-6.721-29.485-6.144-29.485Z"/>
   <path class="monochrome-1 multicolor-1:tintColor hierarchical-1:primary SFSymbolsPreviewWireframe" d="M65.926 1.778C77.568 1.778 87.275-7.887 87.275-19.616C87.275-31.31 77.621-40.969 65.926-40.969C54.235-40.969 44.532-31.265 44.532-19.616C44.532-7.876 54.232 1.778 65.926 1.778Z"/>
   <path class="monochrome-2 multicolor-2:tintColor hierarchical-2:primary SFSymbolsPreviewWireframe" d="M65.926-1.301C75.893-1.301 84.2-9.555 84.2-19.616C84.2-29.635 75.945-37.89 65.926-37.89C55.907-37.89 47.611-29.59 47.611-19.616C47.611-9.548 55.907-1.301 65.926-1.301Z"/>
   <path class="monochrome-3 multicolor-3:tintColor hierarchical-3:primary SFSymbolsPreviewWireframe" d="M65.926-7.727C64.958-7.727 64.39-8.386 64.39-9.222L64.39-18.079L55.532-18.079C54.741-18.079 54.037-18.647 54.037-19.616C54.037-20.543 54.741-21.111 55.532-21.111L64.39-21.111L64.39-29.923C64.39-30.756 64.958-31.418 65.926-31.418C66.853-31.418 67.421-30.756 67.421-29.923L67.421-21.111L76.233-21.111C77.111-21.111 77.728-20.543 77.728-19.616C77.728-18.647 77.111-18.079 76.233-18.079L67.421-18.079L67.421-9.222C67.421-8.386 66.853-7.727 65.926-7.727Z"/>
   <path class="monochrome-4 multicolor-4:tintColor hierarchical-4:primary SFSymbolsPreviewWireframe" d="M126.155-31.17C126.155-31.344 126.092-31.448 125.971-31.568L113.011-44.639C112.73-44.941 112.582-45 112.41-45C112.085-45 111.846-44.762 111.846-44.481C111.846-44.309 111.88-44.159 111.997-44.045L120.292-35.763L124.957-31.178L125.124-31.639L120.401-31.717L91.18-31.717C90.873-31.717 90.635-31.477 90.635-31.17C90.635-30.863 90.873-30.623 91.18-30.623L120.401-30.623L125.124-30.701L124.957-31.16L120.292-26.577L111.997-18.296C111.903-18.203 111.846-18.031 111.846-17.859C111.846-17.578 112.085-17.34 112.41-17.34C112.582-17.34 112.685-17.399 112.806-17.496L125.971-30.772C126.092-30.892 126.155-30.996 126.155-31.17Z"/>
   <path class="monochrome-5 multicolor-5:tintColor hierarchical-5:primary SFSymbolsPreviewWireframe" d="M129.635-11.688C129.635-4.582 142.2 2.13 159.816 2.13C177.478 2.13 190.043-4.582 190.043-11.688L190.043-59.318C190.043-66.39 177.935-72 159.816-72C141.697-72 129.635-66.39 129.635-59.318L129.635-11.688Z"/>
   <path class="monochrome-6 multicolor-6:tintColor hierarchical-6:primary SFSymbolsPreviewWireframe" d="M129.635-30.789L129.635-33.23C136.619-27.463 147.4-24.468 159.816-24.468C172.233-24.468 183.013-27.463 190.043-33.23L190.043-30.789C183.601-25.165 172.827-22.281 159.816-22.281C146.85-22.281 136.076-25.165 129.635-30.789ZM131.853-59.318C131.853-65.089 143.039-69.847 159.816-69.847C176.639-69.847 187.825-65.089 187.825-59.318C187.825-53.564 176.185-48.82 159.816-48.82C143.493-48.82 131.853-53.564 131.853-59.318Z"/>
  </g>
 </g>
</svg>
