<?xml version="1.0" encoding="UTF-8"?>
<!--Generator: Apple Native CoreSVG 232.5-->
<!DOCTYPE svg
PUBLIC "-//W3C//DTD SVG 1.1//EN"
       "http://www.w3.org/Graphics/SVG/1.1/DTD/svg11.dtd">
<svg version="1.1" xmlns="http://www.w3.org/2000/svg" xmlns:xlink="http://www.w3.org/1999/xlink" width="3300" height="2200">
 <!--glyph: "", point size: 100.0, font version: "19.0d8e1", template writer version: "128"-->
 <style>.monochrome-0 {-sfsymbols-variable-threshold:0.0;-sfsymbols-motion-group:3}
.monochrome-1 {opacity:0.0;-sfsymbols-clear-behind:true;-sfsymbols-variable-threshold:0.15;-sfsymbols-motion-group:2}
.monochrome-2 {-sfsymbols-variable-threshold:0.3;-sfsymbols-motion-group:2}
.monochrome-3 {opacity:0.0;-sfsymbols-clear-behind:true;-sfsymbols-variable-threshold:0.44;-sfsymbols-motion-group:2}
.monochrome-4 {-sfsymbols-variable-threshold:0.58;-sfsymbols-motion-group:1}
.monochrome-5 {-sfsymbols-variable-threshold:0.72;-sfsymbols-motion-group:0}
.monochrome-6 {opacity:0.0;-sfsymbols-clear-behind:true;-sfsymbols-variable-threshold:0.87;-sfsymbols-motion-group:0}

.multicolor-0:tintColor {-sfsymbols-variable-threshold:0.0;-sfsymbols-motion-group:3}
.multicolor-1:tintColor {-sfsymbols-variable-threshold:0.15;-sfsymbols-motion-group:2}
.multicolor-2:tintColor {-sfsymbols-variable-threshold:0.3;-sfsymbols-motion-group:2}
.multicolor-3:tintColor {-sfsymbols-variable-threshold:0.44;-sfsymbols-motion-group:2}
.multicolor-4:tintColor {-sfsymbols-variable-threshold:0.58;-sfsymbols-motion-group:1}
.multicolor-5:tintColor {-sfsymbols-variable-threshold:0.72;-sfsymbols-motion-group:0}
.multicolor-6:tintColor {-sfsymbols-variable-threshold:0.87;-sfsymbols-motion-group:0}

.hierarchical-0:primary {-sfsymbols-variable-threshold:0.0;-sfsymbols-motion-group:3}
.hierarchical-1:primary {-sfsymbols-variable-threshold:0.15;-sfsymbols-motion-group:2}
.hierarchical-2:primary {-sfsymbols-variable-threshold:0.3;-sfsymbols-motion-group:2}
.hierarchical-3:primary {-sfsymbols-variable-threshold:0.44;-sfsymbols-motion-group:2}
.hierarchical-4:primary {-sfsymbols-variable-threshold:0.58;-sfsymbols-motion-group:1}
.hierarchical-5:primary {-sfsymbols-variable-threshold:0.72;-sfsymbols-motion-group:0}
.hierarchical-6:primary {-sfsymbols-variable-threshold:0.87;-sfsymbols-motion-group:0}

.SFSymbolsPreviewWireframe {fill:none;opacity:1.0;stroke:black;stroke-width:0.5}
</style>
 <g id="Notes">
  <rect height="2200" id="artboard" style="fill:white;opacity:1" width="3300" x="0" y="0"/>
  <line style="fill:none;stroke:black;opacity:1;stroke-width:0.5;" x1="263" x2="3036" y1="292" y2="292"/>
  <text style="stroke:none;fill:black;font-family:sans-serif;font-size:13;font-weight:bold;" transform="matrix(1 0 0 1 263 322)">Weight/Scale Variations</text>
  <text style="stroke:none;fill:black;font-family:sans-serif;font-size:13;text-anchor:middle;" transform="matrix(1 0 0 1 559.711 322)">Ultralight</text>
  <text style="stroke:none;fill:black;font-family:sans-serif;font-size:13;text-anchor:middle;" transform="matrix(1 0 0 1 856.422 322)">Thin</text>
  <text style="stroke:none;fill:black;font-family:sans-serif;font-size:13;text-anchor:middle;" transform="matrix(1 0 0 1 1153.13 322)">Light</text>
  <text style="stroke:none;fill:black;font-family:sans-serif;font-size:13;text-anchor:middle;" transform="matrix(1 0 0 1 1449.84 322)">Regular</text>
  <text style="stroke:none;fill:black;font-family:sans-serif;font-size:13;text-anchor:middle;" transform="matrix(1 0 0 1 1746.56 322)">Medium</text>
  <text style="stroke:none;fill:black;font-family:sans-serif;font-size:13;text-anchor:middle;" transform="matrix(1 0 0 1 2043.27 322)">Semibold</text>
  <text style="stroke:none;fill:black;font-family:sans-serif;font-size:13;text-anchor:middle;" transform="matrix(1 0 0 1 2339.98 322)">Bold</text>
  <text style="stroke:none;fill:black;font-family:sans-serif;font-size:13;text-anchor:middle;" transform="matrix(1 0 0 1 2636.69 322)">Heavy</text>
  <text style="stroke:none;fill:black;font-family:sans-serif;font-size:13;text-anchor:middle;" transform="matrix(1 0 0 1 2933.4 322)">Black</text>
  <line style="fill:none;stroke:black;opacity:1;stroke-width:0.5;" x1="263" x2="3036" y1="1903" y2="1903"/>
  <g transform="matrix(0.2 0 0 0.2 263 1933)">
   <path d="m46.2402 4.15039c21.5332 0 39.4531-17.8711 39.4531-39.4043s-17.9688-39.4043-39.502-39.4043c-21.4844 0-39.3555 17.8711-39.3555 39.4043s17.9199 39.4043 39.4043 39.4043Zm0-7.42188c-17.7246 0-31.8848-14.209-31.8848-31.9824s14.1113-31.9824 31.8359-31.9824c17.7734 0 32.0312 14.209 32.0312 31.9824s-14.209 31.9824-31.9824 31.9824Zm-17.9688-31.9824c0 2.14844 1.51367 3.61328 3.75977 3.61328h10.498v10.5957c0 2.19727 1.46484 3.71094 3.61328 3.71094 2.24609 0 3.71094-1.51367 3.71094-3.71094v-10.5957h10.5957c2.19727 0 3.71094-1.46484 3.71094-3.61328 0-2.19727-1.51367-3.71094-3.71094-3.71094h-10.5957v-10.5469c0-2.24609-1.46484-3.75977-3.71094-3.75977-2.14844 0-3.61328 1.51367-3.61328 3.75977v10.5469h-10.498c-2.24609 0-3.75977 1.51367-3.75977 3.71094Z"/>
  </g>
  <g transform="matrix(0.2 0 0 0.2 281.506 1933)">
   <path d="m58.5449 14.5508c27.2461 0 49.8047-22.6074 49.8047-49.8047 0-27.2461-22.6074-49.8047-49.8535-49.8047-27.1973 0-49.7559 22.5586-49.7559 49.8047 0 27.1973 22.6074 49.8047 49.8047 49.8047Zm0-8.30078c-23.0469 0-41.4551-18.457-41.4551-41.5039s18.3594-41.5039 41.4062-41.5039 41.5527 18.457 41.5527 41.5039-18.457 41.5039-41.5039 41.5039Zm-22.6562-41.5039c0 2.39258 1.66016 4.00391 4.15039 4.00391h14.3555v14.4043c0 2.44141 1.66016 4.15039 4.05273 4.15039 2.44141 0 4.15039-1.66016 4.15039-4.15039v-14.4043h14.4043c2.44141 0 4.15039-1.61133 4.15039-4.00391 0-2.44141-1.70898-4.15039-4.15039-4.15039h-14.4043v-14.3555c0-2.49023-1.70898-4.19922-4.15039-4.19922-2.39258 0-4.05273 1.70898-4.05273 4.19922v14.3555h-14.3555c-2.49023 0-4.15039 1.70898-4.15039 4.15039Z"/>
  </g>
  <g transform="matrix(0.2 0 0 0.2 304.924 1933)">
   <path d="m74.8535 28.3203c34.8145 0 63.623-28.8086 63.623-63.5742 0-34.8145-28.8574-63.623-63.6719-63.623-34.7656 0-63.5254 28.8086-63.5254 63.623 0 34.7656 28.8086 63.5742 63.5742 63.5742Zm0-9.08203c-30.1758 0-54.4434-24.3164-54.4434-54.4922 0-30.2246 24.2188-54.4922 54.3945-54.4922 30.2246 0 54.541 24.2676 54.541 54.4922 0 30.1758-24.2676 54.4922-54.4922 54.4922Zm-28.8574-54.4922c0 2.58789 1.85547 4.39453 4.58984 4.39453h19.7266v19.7754c0 2.68555 1.85547 4.58984 4.44336 4.58984 2.68555 0 4.54102-1.85547 4.54102-4.58984v-19.7754h19.7754c2.68555 0 4.58984-1.80664 4.58984-4.39453 0-2.73438-1.85547-4.58984-4.58984-4.58984h-19.7754v-19.7266c0-2.73438-1.85547-4.63867-4.54102-4.63867-2.58789 0-4.44336 1.9043-4.44336 4.63867v19.7266h-19.7266c-2.73438 0-4.58984 1.85547-4.58984 4.58984Z"/>
  </g>
  <text style="stroke:none;fill:black;font-family:sans-serif;font-size:13;font-weight:bold;" transform="matrix(1 0 0 1 263 1953)">Design Variations</text>
  <text style="stroke:none;fill:black;font-family:sans-serif;font-size:13;" transform="matrix(1 0 0 1 263 1971)">Symbols are supported in up to nine weights and three scales.</text>
  <text style="stroke:none;fill:black;font-family:sans-serif;font-size:13;" transform="matrix(1 0 0 1 263 1989)">For optimal layout with text and other symbols, vertically align</text>
  <text style="stroke:none;fill:black;font-family:sans-serif;font-size:13;" transform="matrix(1 0 0 1 263 2007)">symbols with the adjacent text.</text>
  <line style="fill:none;stroke:#00AEEF;stroke-width:0.5;opacity:1.0;" x1="776" x2="776" y1="1919" y2="1933"/>
  <g transform="matrix(0.2 0 0 0.2 776 1933)">
   <path d="m16.5527 0.78125c2.58789 0 3.85742-0.976562 4.78516-3.71094l6.29883-17.2363h28.8086l6.29883 17.2363c0.927734 2.73438 2.19727 3.71094 4.73633 3.71094 2.58789 0 4.24805-1.5625 4.24805-4.00391 0-0.830078-0.146484-1.61133-0.537109-2.63672l-22.9004-60.9863c-1.12305-2.97852-3.125-4.49219-6.25-4.49219-3.02734 0-5.07812 1.46484-6.15234 4.44336l-22.9004 61.084c-0.390625 1.02539-0.537109 1.80664-0.537109 2.63672 0 2.44141 1.5625 3.95508 4.10156 3.95508Zm13.4766-28.3691 11.8652-32.8613h0.244141l11.8652 32.8613Z"/>
  </g>
  <line style="fill:none;stroke:#00AEEF;stroke-width:0.5;opacity:1.0;" x1="792.836" x2="792.836" y1="1919" y2="1933"/>
  <text style="stroke:none;fill:black;font-family:sans-serif;font-size:13;font-weight:bold;" transform="matrix(1 0 0 1 776 1953)">Margins</text>
  <text style="stroke:none;fill:black;font-family:sans-serif;font-size:13;" transform="matrix(1 0 0 1 776 1971)">Leading and trailing margins on the left and right side of each symbol</text>
  <text style="stroke:none;fill:black;font-family:sans-serif;font-size:13;" transform="matrix(1 0 0 1 776 1989)">can be adjusted by modifying the x-location of the margin guidelines.</text>
  <text style="stroke:none;fill:black;font-family:sans-serif;font-size:13;" transform="matrix(1 0 0 1 776 2007)">Modifications are automatically applied proportionally to all</text>
  <text style="stroke:none;fill:black;font-family:sans-serif;font-size:13;" transform="matrix(1 0 0 1 776 2025)">scales and weights.</text>
  <g transform="matrix(0.2 0 0 0.2 1289 1933)">
   <path d="m14.209 9.32617 8.49609 8.54492c4.29688 4.3457 9.22852 4.05273 13.8672-1.07422l53.4668-58.9355-4.83398-4.88281-53.0762 58.3984c-1.75781 2.00195-3.41797 2.49023-5.76172 0.146484l-5.85938-5.81055c-2.34375-2.29492-1.80664-4.00391 0.195312-5.81055l57.373-54.0039-4.88281-4.83398-57.959 54.4434c-4.93164 4.58984-5.32227 9.47266-1.02539 13.8184Zm32.0801-90.9668c-2.09961 2.05078-2.24609 4.93164-1.07422 6.88477 1.17188 1.80664 3.4668 2.97852 6.68945 2.14844 7.32422-1.70898 14.9414-2.00195 22.0703 2.68555l-2.92969 7.27539c-1.70898 4.15039-0.830078 7.08008 1.85547 9.81445l11.4746 11.5723c2.44141 2.44141 4.49219 2.53906 7.32422 2.05078l5.32227-0.976562 3.32031 3.36914-0.195312 2.7832c-0.195312 2.49023 0.439453 4.39453 2.88086 6.78711l3.80859 3.71094c2.39258 2.39258 5.46875 2.53906 7.8125 0.195312l14.5508-14.5996c2.34375-2.34375 2.24609-5.32227-0.146484-7.71484l-3.85742-3.80859c-2.39258-2.39258-4.24805-3.17383-6.64062-2.97852l-2.88086 0.244141-3.22266-3.17383 1.2207-5.61523c0.634766-2.83203-0.146484-5.0293-3.07617-7.95898l-10.9863-10.9375c-16.6992-16.6016-38.8672-16.2109-53.3203-1.75781Zm7.4707 1.85547c12.1582-8.88672 28.6133-7.37305 39.7461 3.75977l12.1582 12.0605c1.17188 1.17188 1.36719 2.09961 1.02539 3.80859l-1.61133 7.42188 7.51953 7.42188 4.93164-0.292969c1.26953-0.0488281 1.66016 0.0488281 2.63672 1.02539l2.88086 2.88086-12.207 12.207-2.88086-2.88086c-0.976562-0.976562-1.12305-1.36719-1.07422-2.68555l0.341797-4.88281-7.4707-7.42188-7.61719 1.26953c-1.61133 0.341797-2.34375 0.195312-3.56445-0.976562l-10.0098-10.0098c-1.26953-1.17188-1.41602-2.00195-0.634766-3.85742l4.39453-10.4492c-7.8125-7.27539-17.9688-10.4004-28.125-7.42188-0.78125 0.195312-1.07422-0.439453-0.439453-0.976562Z"/>
  </g>
  <text style="stroke:none;fill:black;font-family:sans-serif;font-size:13;font-weight:bold;" transform="matrix(1 0 0 1 1289 1953)">Exporting</text>
  <text style="stroke:none;fill:black;font-family:sans-serif;font-size:13;" transform="matrix(1 0 0 1 1289 1971)">Symbols should be outlined when exporting to ensure the</text>
  <text style="stroke:none;fill:black;font-family:sans-serif;font-size:13;" transform="matrix(1 0 0 1 1289 1989)">design is preserved when submitting to Xcode.</text>
  <text id="template-version" style="stroke:none;fill:black;font-family:sans-serif;font-size:13;text-anchor:end;" transform="matrix(1 0 0 1 3036 1933)">Template v.5.0</text>
  <text style="stroke:none;fill:black;font-family:sans-serif;font-size:13;text-anchor:end;" transform="matrix(1 0 0 1 3036 1951)">Requires Xcode 15 or greater</text>
  <text id="descriptive-name" style="stroke:none;fill:black;font-family:sans-serif;font-size:13;text-anchor:end;" transform="matrix(1 0 0 1 3036 1969)">Generated from MonitoringIcon</text>
  <text style="stroke:none;fill:black;font-family:sans-serif;font-size:13;text-anchor:end;" transform="matrix(1 0 0 1 3036 1987)">Typeset at 100.0 points</text>
  <text style="stroke:none;fill:black;font-family:sans-serif;font-size:13;" transform="matrix(1 0 0 1 263 726)">Small</text>
  <text style="stroke:none;fill:black;font-family:sans-serif;font-size:13;" transform="matrix(1 0 0 1 263 1156)">Medium</text>
  <text style="stroke:none;fill:black;font-family:sans-serif;font-size:13;" transform="matrix(1 0 0 1 263 1586)">Large</text>
 </g>
 <g id="Guides">
  <g id="H-reference" style="fill:#27AAE1;stroke:none;" transform="matrix(1 0 0 1 339 696)">
   <path d="M0.993654 0L3.63775 0L29.3281-67.1323L30.0303-67.1323L30.0303-70.459L28.1226-70.459ZM11.6885-24.4799L46.9815-24.4799L46.2315-26.7285L12.4385-26.7285ZM55.1196 0L57.7637 0L30.6382-70.459L29.4326-70.459L29.4326-67.1323Z"/>
  </g>
  <line id="Baseline-S" style="fill:none;stroke:#27AAE1;opacity:1;stroke-width:0.5;" x1="263" x2="3036" y1="696" y2="696"/>
  <line id="Capline-S" style="fill:none;stroke:#27AAE1;opacity:1;stroke-width:0.5;" x1="263" x2="3036" y1="625.541" y2="625.541"/>
  <g id="H-reference" style="fill:#27AAE1;stroke:none;" transform="matrix(1 0 0 1 339 1126)">
   <path d="M0.993654 0L3.63775 0L29.3281-67.1323L30.0303-67.1323L30.0303-70.459L28.1226-70.459ZM11.6885-24.4799L46.9815-24.4799L46.2315-26.7285L12.4385-26.7285ZM55.1196 0L57.7637 0L30.6382-70.459L29.4326-70.459L29.4326-67.1323Z"/>
  </g>
  <line id="Baseline-M" style="fill:none;stroke:#27AAE1;opacity:1;stroke-width:0.5;" x1="263" x2="3036" y1="1126" y2="1126"/>
  <line id="Capline-M" style="fill:none;stroke:#27AAE1;opacity:1;stroke-width:0.5;" x1="263" x2="3036" y1="1055.54" y2="1055.54"/>
  <g id="H-reference" style="fill:#27AAE1;stroke:none;" transform="matrix(1 0 0 1 339 1556)">
   <path d="M0.993654 0L3.63775 0L29.3281-67.1323L30.0303-67.1323L30.0303-70.459L28.1226-70.459ZM11.6885-24.4799L46.9815-24.4799L46.2315-26.7285L12.4385-26.7285ZM55.1196 0L57.7637 0L30.6382-70.459L29.4326-70.459L29.4326-67.1323Z"/>
  </g>
  <line id="Baseline-L" style="fill:none;stroke:#27AAE1;opacity:1;stroke-width:0.5;" x1="263" x2="3036" y1="1556" y2="1556"/>
  <line id="Capline-L" style="fill:none;stroke:#27AAE1;opacity:1;stroke-width:0.5;" x1="263" x2="3036" y1="1485.54" y2="1485.54"/>
  <line id="left-margin-Ultralight-S" style="fill:none;stroke:#FF3B30;stroke-width:0.5;opacity:1.0;" x1="519.365" x2="519.365" y1="600.785" y2="720.121"/>
  <line id="right-margin-Ultralight-S" style="fill:none;stroke:#FF3B30;stroke-width:0.5;opacity:1.0;" x1="600.057" x2="600.057" y1="600.785" y2="720.121"/>
  <line id="left-margin-Regular-S" style="fill:none;stroke:#FF3B30;stroke-width:0.5;opacity:1.0;" x1="1403.8" x2="1403.8" y1="600.785" y2="720.121"/>
  <line id="right-margin-Regular-S" style="fill:none;stroke:#FF3B30;stroke-width:0.5;opacity:1.0;" x1="1495.89" x2="1495.89" y1="600.785" y2="720.121"/>
  <line id="left-margin-Black-S" style="fill:none;stroke:#FF3B30;stroke-width:0.5;opacity:1.0;" x1="2882.13" x2="2882.13" y1="600.785" y2="720.121"/>
  <line id="right-margin-Black-S" style="fill:none;stroke:#FF3B30;stroke-width:0.5;opacity:1.0;" x1="2984.67" x2="2984.67" y1="600.785" y2="720.121"/>
 </g>
 <g id="Symbols">
  <g id="Black-S" transform="matrix(1 0 0 1 2882.13 696)">
   <path class="monochrome-0 multicolor-0:tintColor hierarchical-0:primary SFSymbolsPreviewWireframe" d="M4.64-25.293L16.35-25.293C18.99-25.293 20.99-26.074 22.16-27.734L25.88-33.008L19.28-33.008L24.31-7.178C25.39-1.709 33.15-1.709 33.93-7.178L35.79-20.117L39.06 10.791C39.69 16.65 48.29 16.65 48.78 10.791L51.27-19.482L53.76 10.791C54.24 16.65 62.84 16.65 63.47 10.791L66.74-20.117L68.6-7.178C69.38-1.709 77.15-1.709 78.22-7.178L83.3-33.008L78.02-33.008L80.12-29.59C81.78-26.855 84.32-25.293 87.45-25.293L97.9-25.293C100.53-25.293 102.78-27.539 102.78-30.176C102.78-32.812 100.53-35.059 97.9-35.059L88.33-35.059L85.59-46.289C84.37-51.318 77.05-51.318 76.07-46.289L74.22-36.914L70.9-60.059C70.07-65.771 61.81-65.771 61.23-60.059L59.27-41.602L56.15-79.394C55.66-85.352 46.87-85.352 46.38-79.394L43.26-41.602L41.31-60.059C40.72-65.771 32.47-65.771 31.64-60.059L28.32-36.914L26.46-46.289C25.48-51.269 18.16-51.269 16.94-46.289L14.21-35.059L4.64-35.059C2-35.059-0.25-32.812-0.25-30.176C-0.25-27.539 2-25.293 4.64-25.293Z"/>
   <path class="monochrome-1 multicolor-1:tintColor hierarchical-1:primary SFSymbolsPreviewWireframe" d="M89.31 12.012C90.97 12.012 92.63 11.816 94.19 11.475L98.14 15.381C100.39 17.578 103.42 18.75 106.49 18.75C113.13 18.75 118.36 13.574 118.36 6.885C118.36 3.857 117.19 0.83 114.89-1.465L111.18-5.176C111.62-6.934 111.86-8.74 111.86-10.596C111.86-22.949 101.71-33.154 89.31-33.154C76.9-33.154 66.7-22.949 66.7-10.596C66.7 1.855 76.9 12.012 89.31 12.012Z"/>
   <path class="monochrome-2 multicolor-2:tintColor hierarchical-2:primary SFSymbolsPreviewWireframe" d="M89.31 5.664C98.19 5.664 105.52-1.66 105.52-10.596C105.52-19.434 98.19-26.807 89.31-26.807C80.42-26.807 73.05-19.434 73.05-10.596C73.05-1.66 80.42 5.664 89.31 5.664ZM106.49 12.402C109.62 12.402 112.01 10.059 112.01 6.885C112.01 5.518 111.52 4.15 110.4 3.027L101.22-6.152L93.36 1.66L102.59 10.84C103.66 11.865 105.08 12.402 106.49 12.402Z"/>
   <path class="monochrome-3 multicolor-3:tintColor hierarchical-3:primary SFSymbolsPreviewWireframe" d="M89.31-2.295C84.77-2.295 81.01-5.957 81.01-10.596C81.01-15.186 84.77-18.799 89.31-18.799C93.85-18.799 97.56-15.186 97.56-10.596C97.56-5.957 93.85-2.295 89.31-2.295Z"/>
   <path class="monochrome-4 multicolor-4:tintColor hierarchical-4:primary SFSymbolsPreviewWireframe" d="M167.01-30.371C167.01-31.66 166.45-33.067 165.63-33.887L151.01-48.506C150.04-49.473 148.84-50 147.73-50C144.83-50 142.98-48.037 142.98-45.488C142.98-43.965 143.69-42.91 144.59-42.031L149.87-36.817L155.58-31.485L158.1-34.678L147.41-35.176L124.97-35.176C121.89-35.176 119.87-33.272 119.87-30.371C119.87-27.471 121.89-25.567 124.97-25.567L147.41-25.567L158.1-26.065L155.58-29.258L149.87-23.926L144.59-18.741C143.69-17.862 142.98-16.807 142.98-15.284C142.98-12.735 144.83-10.772 147.73-10.772C148.84-10.772 150.04-11.299 151.01-12.266L165.63-26.856C166.45-27.676 167.01-29.082 167.01-30.371Z"/>
   <path class="monochrome-5 multicolor-5:tintColor hierarchical-5:primary SFSymbolsPreviewWireframe" d="M178.09 4.15L236.49 4.15C244.01 4.15 249.38-2.051 249.38-8.838C249.38-10.986 248.89-13.184 247.72-15.234L218.47-66.455C215.93-70.85 211.69-72.949 207.29-72.949C202.9-72.949 198.5-70.752 196.06-66.455L166.81-15.186C165.69-13.184 165.15-10.986 165.15-8.838C165.15-2.051 170.52 4.15 178.09 4.15Z"/>
   <path class="monochrome-6 multicolor-6:tintColor hierarchical-6:primary SFSymbolsPreviewWireframe" d="M207.34-25.342C203.82-25.342 201.72-27.246 201.48-30.713L200.75-42.188C200.5-46.045 203.19-48.584 207.29-48.584C211.39-48.584 214.08-46.045 213.83-42.188L213.1-30.811C212.86-27.246 210.81-25.342 207.34-25.342ZM207.34-10.352C203.43-10.352 200.6-12.402 200.6-16.065C200.6-19.678 203.43-21.729 207.34-21.729C211.25-21.729 213.98-19.629 213.98-16.065C213.98-12.402 211.25-10.352 207.34-10.352Z"/>
  </g>
  <g id="Regular-S" transform="matrix(1 0 0 1 1403.8 696)">
   <path class="monochrome-0 multicolor-0:tintColor hierarchical-0:primary SFSymbolsPreviewWireframe" d="M2.39-27.441L13.18-27.441C14.3-27.441 15.38-28.125 15.67-29.394L17.23-36.621L15.72-36.621L21.58-9.57C22.16-6.982 26.36-6.982 26.75-9.57L31.1-38.037L36.32 7.08C36.71 10.303 41.25 10.254 41.55 7.08L46.28-46.045L51.02 7.08C51.26 10.303 55.81 10.303 56.2 7.08L61.42-38.037L65.82-9.57C66.16-6.982 70.36-6.982 70.94-9.57L76.75-36.377L75.09-36.328L76.9-29.394C77.24-27.93 78.27-27.441 79.39-27.441L89.69-27.441C91.45-27.441 92.82-28.76 92.82-30.469C92.82-32.227 91.45-33.594 89.69-33.594L81.29-33.594L78.27-45.019C77.53-47.9 73.77-47.9 73.19-45.019L68.74-24.365L63.62-57.861C63.13-60.986 58.78-60.937 58.44-57.861L53.9-18.945L48.92-75.732C48.63-78.955 43.89-78.955 43.65-75.732L38.62-18.945L34.13-57.861C33.74-60.986 29.39-60.986 28.9-57.861L23.77-24.365L19.38-45.019C18.79-47.705 14.99-47.705 14.25-45.019L11.27-33.594L2.39-33.594C0.63-33.594-0.74-32.227-0.74-30.469C-0.74-28.76 0.63-27.441 2.39-27.441Z"/>
   <path class="monochrome-1 multicolor-1:tintColor hierarchical-1:primary SFSymbolsPreviewWireframe" d="M78.42 3.32C80.81 3.32 83.06 2.881 85.21 2.148L91.55 8.447C93.41 10.352 95.8 11.426 98.49 11.426C103.61 11.426 107.67 7.324 107.67 2.1C107.67-0.342 106.54-2.734 104.83-4.492L98.54-10.84C99.37-13.086 99.85-15.576 99.85-18.115C99.85-29.932 90.23-39.502 78.42-39.502C66.65-39.502 57.03-29.883 57.03-18.115C57.03-6.348 66.65 3.32 78.42 3.32Z"/>
   <path class="monochrome-2 multicolor-2:tintColor hierarchical-2:primary SFSymbolsPreviewWireframe" d="M78.42-2.393C87.11-2.393 94.14-9.424 94.14-18.115C94.14-26.758 87.11-33.838 78.42-33.838C69.82-33.838 62.7-26.709 62.7-18.115C62.7-9.473 69.82-2.393 78.42-2.393ZM98.49 5.713C100.49 5.713 101.95 4.199 101.95 2.1C101.95 1.172 101.47 0.244 100.83-0.439L89.16-12.158L83.79-7.275L95.56 4.443C96.44 5.273 97.31 5.713 98.49 5.713Z"/>
   <path class="monochrome-3 multicolor-3:tintColor hierarchical-3:primary SFSymbolsPreviewWireframe" d="M78.42-8.203C73-8.203 68.51-12.695 68.51-18.115C68.51-23.486 73-27.978 78.42-27.978C83.84-27.978 88.28-23.535 88.28-18.115C88.28-12.695 83.84-8.203 78.42-8.203Z"/>
   <path class="monochrome-4 multicolor-4:tintColor hierarchical-4:primary SFSymbolsPreviewWireframe" d="M137.72-30.352C137.72-30.889 137.48-31.402 137.04-31.817L124.44-44.39C124-44.805 123.51-45 123-45C121.92-45 121.09-44.194 121.09-43.096C121.09-42.583 121.27-42.07 121.63-41.729L125-38.238L133.25-30.792L133.69-31.866L127.2-32.33L104.15-32.33C103.01-32.33 102.2-31.5 102.2-30.352C102.2-29.205 103.01-28.375 104.15-28.375L127.2-28.375L133.69-28.839L133.25-29.889L125-22.467L121.63-18.976C121.27-18.634 121.09-18.122 121.09-17.609C121.09-16.511 121.92-15.705 123-15.705C123.51-15.705 124-15.9 124.44-16.315L137.04-28.888C137.48-29.303 137.72-29.815 137.72-30.352Z"/>
   <path class="monochrome-5 multicolor-5:tintColor hierarchical-5:primary SFSymbolsPreviewWireframe" d="M147.7 1.123L206.39 1.123C213.18 1.123 217.33-3.613 217.33-9.814C217.33-11.621 216.79-13.525 215.82-15.234L186.42-66.26C184.32-69.873 180.76-71.777 177.05-71.777C173.33-71.777 169.72-69.873 167.67-66.26L138.28-15.234C137.25-13.477 136.76-11.621 136.76-9.814C136.76-3.613 140.91 1.123 147.7 1.123Z"/>
   <path class="monochrome-6 multicolor-6:tintColor hierarchical-6:primary SFSymbolsPreviewWireframe" d="M177.05-24.609C174.8-24.609 173.53-25.879 173.48-28.125L172.94-48.926C172.9-51.221 174.6-52.832 177-52.832C179.34-52.832 181.15-51.172 181.1-48.877L180.46-28.125C180.41-25.83 179.19-24.609 177.05-24.609ZM177.05-11.377C174.56-11.377 172.36-13.33 172.36-15.82C172.36-18.31 174.51-20.312 177.05-20.312C179.54-20.312 181.68-18.31 181.68-15.82C181.68-13.281 179.54-11.377 177.05-11.377Z"/>
  </g>
  <g id="Ultralight-S" transform="matrix(1 0 0 1 519.365 696)">
   <path class="monochrome-0 multicolor-0:tintColor hierarchical-0:primary SFSymbolsPreviewWireframe" d="M-6.144-29.485L7.099-29.485C7.586-29.485 8.07-29.805 8.182-30.257L10.97-41.48L10.41-41.48L17.132-9.343C17.4-8.163 19.102-8.118 19.311-9.389L25.382-50.207L31.924 7.08C32.087 8.35 33.949 8.347 34.061 7.08L40.341-63.982L46.667 6.944C46.774 8.259 48.636 8.305 48.8 6.944L55.296-50.207L61.461-9.252C61.622-8.072 63.323-8.072 63.591-9.252L70.31-41.463L69.74-41.459L72.545-30.257C72.66-29.792 73.141-29.485 73.583-29.485L86.837-29.485C87.414-29.485 87.919-30.031 87.919-30.56C87.919-31.091 87.414-31.641 86.837-31.641L74.442-31.641L71.006-45.337C70.728-46.447 69.103-46.402 68.88-45.292L62.666-15.465L56.222-58.452C56.051-59.669 54.249-59.666 54.088-58.406L47.822-3.597L41.434-76.05C41.322-77.366 39.401-77.366 39.293-76.05L32.856-3.597L26.639-58.406C26.475-59.715 24.718-59.715 24.502-58.452L18.013-15.465L11.802-45.201C11.579-46.434 9.996-46.434 9.672-45.201L6.285-31.641L-6.144-31.641C-6.721-31.641-7.226-31.091-7.226-30.56C-7.226-30.031-6.721-29.485-6.144-29.485Z"/>
   <path class="monochrome-1 multicolor-1:tintColor hierarchical-1:primary SFSymbolsPreviewWireframe" d="M68.155-3.582C71.184-3.582 74.111-4.385 76.577-5.798L85.332 2.953C86.324 3.994 87.445 4.569 88.814 4.569C91.398 4.569 93.316 2.556 93.316 0.056C93.316-1.341 92.738-2.326 91.892-3.266L83.096-12.202C84.562-14.721 85.459-17.71 85.459-20.885C85.459-30.386 77.701-38.23 68.155-38.23C58.613-38.23 50.855-30.382 50.855-20.885C50.855-11.343 58.613-3.582 68.155-3.582Z"/>
   <path class="monochrome-2 multicolor-2:tintColor hierarchical-2:primary SFSymbolsPreviewWireframe" d="M68.155-6.661C76.029-6.661 82.379-13.057 82.379-20.885C82.379-28.71 76.029-35.2 68.155-35.2C60.288-35.2 53.931-28.707 53.931-20.885C53.931-13.06 60.288-6.661 68.155-6.661ZM88.814 1.49C89.726 1.49 90.237 0.839 90.237 0.056C90.237-0.508 90.022-0.755 89.659-1.166L78.216-12.703L76.024-10.681L87.474 0.811C87.898 1.232 88.278 1.49 88.814 1.49Z"/>
   <path class="monochrome-3 multicolor-3:tintColor hierarchical-3:primary SFSymbolsPreviewWireframe" d="M68.201-8.839C61.6-8.839 56.109-14.33 56.109-20.931C56.109-27.573 61.6-33.019 68.201-33.019C74.892-33.019 80.244-27.577 80.244-20.931C80.244-14.285 74.892-8.839 68.201-8.839Z"/>
   <path class="monochrome-4 multicolor-4:tintColor hierarchical-4:primary SFSymbolsPreviewWireframe" d="M126.155-31.17C126.155-31.344 126.092-31.448 125.971-31.568L113.011-44.639C112.73-44.941 112.582-45 112.41-45C112.085-45 111.846-44.762 111.846-44.481C111.846-44.309 111.88-44.159 111.997-44.045L120.292-35.763L124.957-31.178L125.124-31.639L120.401-31.717L91.18-31.717C90.873-31.717 90.635-31.477 90.635-31.17C90.635-30.863 90.873-30.623 91.18-30.623L120.401-30.623L125.124-30.701L124.957-31.16L120.292-26.577L111.997-18.296C111.903-18.203 111.846-18.031 111.846-17.859C111.846-17.578 112.085-17.34 112.41-17.34C112.582-17.34 112.685-17.399 112.806-17.496L125.971-30.772C126.092-30.892 126.155-30.996 126.155-31.17Z"/>
   <path class="monochrome-5 multicolor-5:tintColor hierarchical-5:primary SFSymbolsPreviewWireframe" d="M128.297-0.012L190.395-0.012C195.592-0.012 198.608-3.659 198.608-7.998C198.608-9.668 198.161-11.436 197.185-13.145L166.201-67.894C164.692-70.6 161.99-71.777 159.369-71.777C156.702-71.777 153.997-70.6 152.491-67.894L121.507-13.145C120.527-11.433 120.085-9.668 120.085-7.998C120.085-3.659 123.1-0.012 128.297-0.012Z"/>
   <path class="monochrome-6 multicolor-6:tintColor hierarchical-6:primary SFSymbolsPreviewWireframe" d="M159.369-24.836C158.576-24.836 158.078-25.47 158.075-26.399L157.81-47.336C157.807-48.314 158.38-48.927 159.365-48.927C160.301-48.927 160.882-48.311 160.879-47.333L160.607-26.399C160.649-25.467 160.109-24.836 159.369-24.836ZM159.369-13.965C157.923-13.965 156.815-15.192 156.815-16.501C156.815-17.902 157.92-19.041 159.369-19.041C160.769-19.041 161.919-17.902 161.919-16.501C161.919-15.188 160.769-13.965 159.369-13.965Z"/>
  </g>
 </g>
</svg>
